<svg version="1.1" id="Layer_1" xmlns="http://www.w3.org/2000/svg" xmlns:xlink="http://www.w3.org/1999/xlink" x="0px" y="0px"
	 width="100%" viewBox="0 0 1254 1254" enable-background="new 0 0 1254 1254" xml:space="preserve">
<path fill="#14171D" opacity="1.000000" stroke="none" 
	d="
M1.000001,921.000000 
	C1.000000,725.974182 1.000000,530.948364 1.388983,335.358826 
	C2.179343,333.950073 2.860085,333.130524 2.939840,332.256165 
	C3.992374,320.717102 4.485867,309.105103 6.062805,297.641144 
	C8.316542,281.257080 10.721173,264.846130 14.173255,248.684113 
	C22.079311,211.669403 37.696667,177.815781 58.478485,146.342361 
	C74.311485,122.363731 93.387062,101.173279 115.125320,82.357933 
	C134.945526,65.202721 156.448303,50.517094 179.810471,38.693401 
	C207.379257,24.740709 236.328079,14.874446 266.916229,9.710140 
	C287.863037,6.173617 308.807739,3.226125 330.079254,2.912166 
	C331.395294,2.892742 332.693512,1.665362 334.000000,0.999999 
	C529.692505,1.000000 725.385010,1.000000 921.640015,1.389687 
	C923.379395,2.184805 924.532776,2.847538 925.736511,2.957209 
	C944.853760,4.698888 964.118408,5.428912 983.068115,8.267291 
	C1015.086365,13.063118 1045.739136,22.890915 1074.697388,37.525459 
	C1100.613037,50.622337 1124.525635,66.819733 1145.860596,86.505096 
	C1167.364624,106.346504 1186.639404,128.194214 1202.438721,152.986633 
	C1214.355225,171.686157 1224.154907,191.467621 1231.728882,212.206802 
	C1238.948242,231.975021 1244.465576,252.232956 1247.346802,273.288574 
	C1249.999878,292.676666 1252.844116,311.970062 1253.091675,331.571808 
	C1253.106323,332.722382 1254.335815,333.857605 1255.000000,335.000000 
	C1255.000000,530.025818 1255.000000,725.051697 1254.611572,920.643005 
	C1253.817139,922.553345 1253.152588,923.878784 1253.050049,925.246460 
	C1252.616089,931.031006 1252.624756,936.859375 1251.968994,942.614502 
	C1250.114990,958.885498 1248.500366,975.206909 1245.887939,991.362366 
	C1242.566040,1011.904541 1236.830200,1031.891113 1228.872314,1051.140015 
	C1220.102661,1072.352051 1210.009033,1092.938477 1196.250610,1111.428711 
	C1186.964600,1123.908203 1177.689941,1136.507324 1167.224854,1147.970703 
	C1153.587402,1162.909058 1138.526733,1176.380859 1122.224976,1188.608032 
	C1096.574585,1207.847046 1068.734375,1222.752808 1038.705688,1233.508423 
	C1001.986084,1246.660400 963.732483,1251.580078 924.937988,1253.081665 
	C923.269714,1253.146118 921.645020,1254.334961 920.000000,1255.000000 
	C725.307495,1255.000000 530.614990,1255.000000 335.361877,1254.609375 
	C333.957642,1253.819214 333.137238,1253.133545 332.267059,1253.063232 
	C319.059448,1251.996704 305.778381,1251.536865 292.650360,1249.866821 
	C277.718445,1247.967285 262.740417,1245.775513 248.105972,1242.334595 
	C221.340393,1236.041504 195.849258,1226.169922 171.638870,1212.927124 
	C149.656799,1200.903076 129.301071,1186.545166 110.737816,1169.911987 
	C92.027710,1153.147339 75.880402,1133.993408 61.364799,1113.325317 
	C39.081612,1081.597168 23.885813,1046.861450 14.347902,1009.498413 
	C7.311164,981.933350 3.389632,953.914185 2.915131,925.431580 
	C2.890351,923.944153 1.665925,922.476746 1.000001,921.000000 
M507.543304,429.820953 
	C507.788147,429.574799 508.032959,429.328674 508.953156,428.957123 
	C513.966248,426.253357 518.979309,423.549591 524.690369,420.739502 
	C534.916077,416.577698 544.988281,411.968597 555.414185,408.390045 
	C564.398743,405.306213 573.786255,403.396484 583.827942,401.033234 
	C595.031311,399.685760 606.203064,397.901031 617.445068,397.087494 
	C637.095032,395.665436 656.593628,397.767761 676.616577,401.113068 
	C677.058838,401.115295 677.501038,401.117554 678.584290,401.533264 
	C682.001587,402.239624 685.418884,402.945953 689.438660,404.018036 
	C694.375122,405.441467 699.351257,406.741333 704.241394,408.309296 
	C728.406494,416.057648 750.842224,427.354065 772.290100,441.976654 
	C785.126892,452.899323 798.504333,463.257080 810.660156,474.891144 
	C825.054993,488.668091 836.310425,505.126617 846.932495,522.795166 
	C866.485901,558.671875 877.371338,596.544373 872.988708,637.807922 
	C872.075378,646.406555 872.178223,655.146362 866.079529,662.736145 
	C861.367920,668.599731 862.890869,674.786316 868.671631,680.026001 
	C876.302856,686.943054 884.207581,693.557983 891.859192,700.453125 
	C903.469788,710.916077 914.943665,721.530396 926.514221,732.037964 
	C934.230225,739.045166 944.178101,736.600586 947.675232,726.899353 
	C949.514343,721.797363 951.363037,716.698792 953.194092,711.593933 
	C971.172058,661.473511 978.545105,609.999390 972.555176,556.905212 
	C968.354370,519.669983 957.721619,484.227142 941.559021,450.474792 
	C927.026855,420.127167 908.536987,392.407990 885.113586,367.293610 
	C884.064331,366.238678 883.015076,365.183746 881.708130,363.536072 
	C880.467957,362.358459 879.227783,361.180847 877.694214,359.407593 
	C869.025513,351.418640 860.875244,342.755157 851.565430,335.600342 
	C837.910095,325.105804 823.425110,315.690674 808.857544,305.290802 
	C805.237000,303.222778 801.616516,301.154724 797.617493,298.786072 
	C797.617493,298.786072 797.157104,298.638885 796.720337,298.150726 
	C792.144653,295.830780 787.569031,293.510803 782.448303,290.768219 
	C780.980103,290.141968 779.511902,289.515717 777.564453,288.401459 
	C752.686523,276.544373 726.757812,267.759644 699.786560,262.143036 
	C680.404419,258.106781 660.895264,254.909210 640.196228,254.775955 
	C625.612000,255.004471 610.988403,254.654327 596.455872,255.642548 
	C584.592346,256.449249 572.837585,258.854706 560.194824,260.522339 
	C557.427917,261.283295 554.661011,262.044281 551.255371,262.898834 
	C550.833679,262.980896 550.412048,263.062958 549.304993,263.042267 
	C548.505676,263.302216 547.706421,263.562164 546.265137,263.923309 
	C545.840210,264.003845 545.415222,264.084351 544.162781,263.986359 
	C542.933167,264.314453 541.695923,264.616577 540.475098,264.974487 
	C524.001343,269.804108 507.529816,274.641510 490.260742,279.594238 
	C484.707947,281.680573 479.155151,283.766876 473.014008,286.074249 
	C473.014008,283.669647 473.016571,281.872192 473.013580,280.074738 
	C472.981506,260.911072 472.987335,241.747223 472.896729,222.583832 
	C472.860626,214.949844 467.080994,210.901947 460.065552,214.045547 
	C456.711395,215.548553 453.674225,218.225922 451.117157,220.955612 
	C442.576385,230.072876 434.246368,239.391190 425.962494,248.744827 
	C384.871368,295.142242 343.802338,341.559235 302.774231,388.012360 
	C295.821075,395.884979 296.221313,401.415649 303.988129,407.974518 
	C344.083832,441.834442 384.174927,475.699982 424.329468,509.490051 
	C435.162750,518.606201 446.186340,527.497314 457.176025,536.425903 
	C461.020020,539.548950 465.298431,541.046997 470.154205,538.758789 
	C474.951050,536.498291 475.062317,532.219055 475.046753,527.710144 
	C474.965698,504.213959 475.085144,480.716736 474.901581,457.221680 
	C474.872192,453.461456 475.928833,451.059296 479.073883,448.979431 
	C483.640778,445.959290 487.882416,442.447266 492.917297,438.963104 
	C496.977264,436.319702 501.037231,433.676270 505.656891,430.922180 
	C506.111267,430.584198 506.565674,430.246246 507.543304,429.820953 
M640.849426,982.548401 
	C655.289368,981.151184 669.729370,979.753967 685.036194,978.316833 
	C706.776917,972.897095 728.656372,967.966858 750.203735,961.864258 
	C762.124634,958.487976 773.489441,953.148376 785.202087,949.665161 
	C785.191467,967.159180 785.155090,984.653320 785.183594,1002.147278 
	C785.194275,1008.692444 789.679138,1012.958008 795.632874,1011.541748 
	C798.734680,1010.803894 801.946106,1009.176453 804.332764,1007.071716 
	C808.941223,1003.007751 813.159058,998.462585 817.262207,993.869873 
	C864.209106,941.320557 911.105896,888.726501 958.010376,836.139343 
	C964.698364,828.640991 964.356079,822.929871 956.840576,816.571045 
	C905.973511,773.532715 855.109558,730.490723 804.195312,687.508179 
	C802.462341,686.045166 800.322327,684.868958 798.175781,684.126709 
	C790.891846,681.607910 785.173950,685.809143 785.163696,693.585388 
	C785.129456,719.576782 784.923157,745.571411 785.305420,771.557129 
	C785.391602,777.419067 783.365479,781.243958 779.232788,784.815552 
	C745.455383,814.007019 706.873901,833.464661 662.774780,840.905151 
	C562.618835,857.803650 459.763367,810.731018 407.180298,723.891785 
	C381.323334,681.189880 370.426056,635.315918 381.061584,585.592957 
	C382.711700,577.878418 384.050354,570.118652 390.205017,563.945129 
	C394.972992,559.162598 394.059753,552.119873 389.080231,547.376770 
	C370.142700,529.338074 351.170807,511.334442 332.084595,493.453430 
	C325.540558,487.322632 315.254730,488.939697 312.034546,497.201752 
	C306.549622,511.274475 302.094421,525.748535 296.886688,540.381165 
	C296.779633,540.960693 296.672577,541.540161 296.209595,542.718384 
	C295.205231,546.829590 294.200836,550.940796 292.888794,555.492493 
	C292.832245,556.012756 292.775696,556.533081 292.280731,557.704956 
	C292.230286,558.481873 292.179840,559.258728 291.788269,560.464539 
	C291.707916,560.991760 291.627594,561.519043 291.183411,562.650208 
	C291.177521,563.115051 291.171600,563.579834 290.858582,564.484863 
	C290.836365,565.007568 290.814148,565.530334 290.350586,566.709045 
	C290.296936,567.489441 290.243286,568.269775 289.883820,569.493958 
	C289.835144,570.013733 289.786438,570.533569 289.314362,571.717041 
	C289.280579,572.496826 289.246765,573.276550 288.887848,574.596252 
	C288.792511,575.413940 288.697205,576.231689 288.247437,577.739990 
	C288.224518,578.509583 288.201630,579.279175 287.848663,580.483398 
	C287.743866,581.366211 287.639038,582.249023 287.272400,583.663330 
	C287.301727,583.858643 287.331085,584.053955 287.068878,584.858582 
	C281.562164,618.487000 281.645111,652.175232 286.159882,685.884521 
	C289.618713,711.709839 295.850677,736.845581 305.484833,761.817627 
	C306.125732,763.289307 306.766632,764.760986 307.475525,766.982239 
	C309.421875,771.373352 311.368225,775.764465 313.421265,780.920898 
	C323.242371,802.510864 334.259369,823.407288 349.090759,842.826904 
	C354.305359,849.367493 359.353210,856.049622 364.762848,862.424805 
	C391.313660,893.714355 422.858704,918.913025 458.666870,938.827087 
	C477.889130,949.517273 497.916504,958.382751 519.596497,965.220642 
	C525.485535,967.021057 531.330078,968.985840 537.270935,970.594666 
	C570.247742,979.525391 603.773010,983.941650 638.675415,982.750305 
	C639.126404,982.620850 639.577393,982.491394 640.849426,982.548401 
z"/>
<path fill="#000000" opacity="1.000000" stroke="none" 
	d="
M1.000001,921.468628 
	C1.665925,922.476746 2.890351,923.944153 2.915131,925.431580 
	C3.389632,953.914185 7.311164,981.933350 14.347902,1009.498413 
	C23.885813,1046.861450 39.081612,1081.597168 61.364799,1113.325317 
	C75.880402,1133.993408 92.027710,1153.147339 110.737816,1169.911987 
	C129.301071,1186.545166 149.656799,1200.903076 171.638870,1212.927124 
	C195.849258,1226.169922 221.340393,1236.041504 248.105972,1242.334595 
	C262.740417,1245.775513 277.718445,1247.967285 292.650360,1249.866821 
	C305.778381,1251.536865 319.059448,1251.996704 332.267059,1253.063232 
	C333.137238,1253.133545 333.957642,1253.819214 334.900604,1254.609375 
	C223.739594,1255.000000 112.479195,1255.000000 1.000000,1255.000000 
	C1.000000,1143.979248 1.000000,1032.958252 1.000001,921.468628 
z"/>
<path fill="#000000" opacity="1.000000" stroke="none" 
	d="
M333.531342,0.999999 
	C332.693512,1.665362 331.395294,2.892742 330.079254,2.912166 
	C308.807739,3.226125 287.863037,6.173617 266.916229,9.710140 
	C236.328079,14.874446 207.379257,24.740709 179.810471,38.693401 
	C156.448303,50.517094 134.945526,65.202721 115.125320,82.357933 
	C93.387062,101.173279 74.311485,122.363731 58.478485,146.342361 
	C37.696667,177.815781 22.079311,211.669403 14.173255,248.684113 
	C10.721173,264.846130 8.316542,281.257080 6.062805,297.641144 
	C4.485867,309.105103 3.992374,320.717102 2.939840,332.256165 
	C2.860085,333.130524 2.179343,333.950073 1.388983,334.897552 
	C1.000000,223.739716 1.000000,112.479416 1.000000,1.000000 
	C111.687462,1.000000 222.375076,1.000000 333.531342,0.999999 
z"/>
<path fill="#000000" opacity="1.000000" stroke="none" 
	d="
M920.468628,1255.000000 
	C921.645020,1254.334961 923.269714,1253.146118 924.937988,1253.081665 
	C963.732483,1251.580078 1001.986084,1246.660400 1038.705688,1233.508423 
	C1068.734375,1222.752808 1096.574585,1207.847046 1122.224976,1188.608032 
	C1138.526733,1176.380859 1153.587402,1162.909058 1167.224854,1147.970703 
	C1177.689941,1136.507324 1186.964600,1123.908203 1196.250610,1111.428711 
	C1210.009033,1092.938477 1220.102661,1072.352051 1228.872314,1051.140015 
	C1236.830200,1031.891113 1242.566040,1011.904541 1245.887939,991.362366 
	C1248.500366,975.206909 1250.114990,958.885498 1251.968994,942.614502 
	C1252.624756,936.859375 1252.616089,931.031006 1253.050049,925.246460 
	C1253.152588,923.878784 1253.817139,922.553345 1254.611572,921.104248 
	C1255.000000,1032.260498 1255.000000,1143.520996 1255.000000,1255.000000 
	C1143.645874,1255.000000 1032.291626,1255.000000 920.468628,1255.000000 
z"/>
<path fill="#000000" opacity="1.000000" stroke="none" 
	d="
M1255.000000,334.531311 
	C1254.335815,333.857605 1253.106323,332.722382 1253.091675,331.571808 
	C1252.844116,311.970062 1249.999878,292.676666 1247.346802,273.288574 
	C1244.465576,252.232956 1238.948242,231.975021 1231.728882,212.206802 
	C1224.154907,191.467621 1214.355225,171.686157 1202.438721,152.986633 
	C1186.639404,128.194214 1167.364624,106.346504 1145.860596,86.505096 
	C1124.525635,66.819733 1100.613037,50.622337 1074.697388,37.525459 
	C1045.739136,22.890915 1015.086365,13.063118 983.068115,8.267291 
	C964.118408,5.428912 944.853760,4.698888 925.736511,2.957209 
	C924.532776,2.847538 923.379395,2.184805 922.101318,1.389687 
	C1032.927124,1.000000 1143.854370,1.000000 1255.000000,1.000000 
	C1255.000000,112.020798 1255.000000,223.041748 1255.000000,334.531311 
z"/>
<path fill="#FDFDFD" opacity="1.000000" stroke="none" 
	d="
M307.407532,766.232666 
	C306.766632,764.760986 306.125732,763.289307 305.860168,761.438232 
	C309.996185,760.190430 310.974976,758.166321 308.573517,755.002991 
	C306.660004,752.482483 305.793457,749.970276 306.863770,746.748901 
	C307.352417,745.278259 307.075409,743.401733 306.690430,741.820129 
	C305.401276,736.523132 303.710663,731.319702 302.527008,726.001892 
	C298.641571,708.545898 294.192352,691.171082 291.353516,673.540649 
	C289.149841,659.854919 288.742035,645.847107 288.081360,631.956543 
	C287.594940,621.729248 287.846863,611.457092 288.053162,601.210632 
	C288.152222,596.289307 288.993256,591.385986 289.266510,586.461609 
	C289.305359,585.761597 288.028412,584.988586 287.360443,584.249329 
	C287.331085,584.053955 287.301727,583.858643 287.701599,583.258911 
	C288.146790,581.919250 288.162750,580.984009 288.178711,580.048767 
	C288.201630,579.279175 288.224518,578.509583 288.688171,577.306030 
	C289.156921,575.933472 289.184937,574.994873 289.212952,574.056335 
	C289.246765,573.276550 289.280579,572.496826 289.748962,571.312012 
	C290.185577,570.288086 290.187592,569.669128 290.189636,569.050171 
	C290.243286,568.269775 290.296936,567.489441 290.788452,566.299622 
	C291.206146,565.275024 291.185913,564.659851 291.165710,564.044678 
	C291.171600,563.579834 291.177521,563.115051 291.606323,562.292725 
	C292.062622,561.302002 292.096008,560.668823 292.129364,560.035645 
	C292.179840,559.258728 292.230286,558.481873 292.724152,557.307983 
	C293.177185,556.291382 293.186829,555.671692 293.196442,555.052002 
	C294.200836,550.940796 295.205231,546.829590 296.654297,542.319580 
	C297.134857,541.298462 297.170715,540.676208 297.206573,540.053955 
	C302.094421,525.748535 306.549622,511.274475 312.034546,497.201752 
	C315.254730,488.939697 325.540558,487.322632 332.084595,493.453430 
	C351.170807,511.334442 370.142700,529.338074 389.080231,547.376770 
	C394.059753,552.119873 394.972992,559.162598 390.205017,563.945129 
	C384.050354,570.118652 382.711700,577.878418 381.061584,585.592957 
	C370.426056,635.315918 381.323334,681.189880 407.180298,723.891785 
	C459.763367,810.731018 562.618835,857.803650 662.774780,840.905151 
	C706.873901,833.464661 745.455383,814.007019 779.232788,784.815552 
	C783.365479,781.243958 785.391602,777.419067 785.305420,771.557129 
	C784.923157,745.571411 785.129456,719.576782 785.163696,693.585388 
	C785.173950,685.809143 790.891846,681.607910 798.175781,684.126709 
	C800.322327,684.868958 802.462341,686.045166 804.195312,687.508179 
	C855.109558,730.490723 905.973511,773.532715 956.840576,816.571045 
	C964.356079,822.929871 964.698364,828.640991 958.010376,836.139343 
	C911.105896,888.726501 864.209106,941.320557 817.262207,993.869873 
	C813.159058,998.462585 808.941223,1003.007751 804.332764,1007.071716 
	C801.946106,1009.176453 798.734680,1010.803894 795.632874,1011.541748 
	C789.679138,1012.958008 785.194275,1008.692444 785.183594,1002.147278 
	C785.155090,984.653320 785.191467,967.159180 785.144958,948.730957 
	C785.087830,941.954468 785.087830,936.112183 785.087830,929.743774 
	C782.998352,930.347412 782.208801,930.523743 781.456177,930.800537 
	C766.380127,936.345215 751.470886,942.403259 736.200623,947.346680 
	C708.164307,956.422729 679.273682,961.018311 649.815918,962.049133 
	C647.200867,962.140625 644.601074,962.666199 641.526489,962.987061 
	C629.039124,962.655884 617.019592,962.327942 604.625549,961.996704 
	C603.502319,961.988098 602.753601,961.982788 601.700562,961.710388 
	C592.453491,960.289551 583.486023,959.296509 574.575867,957.929565 
	C567.881470,956.902527 561.235779,955.510498 554.613281,954.073730 
	C545.722046,952.144714 536.874084,950.016052 527.772461,947.700806 
	C519.492065,944.499695 511.385773,941.727234 503.413116,938.612793 
	C479.521820,929.279785 456.691498,917.763733 435.377991,903.517151 
	C408.960480,885.858887 384.798492,865.525146 364.357483,840.991943 
	C361.840668,837.971375 359.073822,833.175842 354.173859,838.619080 
	C353.671661,839.177002 352.032898,838.608032 351.342072,839.124451 
	C350.342010,839.872070 349.725891,841.133423 348.945984,842.175537 
	C334.259369,823.407288 323.242371,802.510864 313.758942,780.411865 
	C317.707916,778.541138 317.525391,775.762512 316.380341,772.981934 
	C314.760773,769.048889 313.360016,764.528076 307.407532,766.232666 
z"/>
<path fill="#ED251F" opacity="1.000000" stroke="none" 
	d="
M492.262756,439.145020 
	C487.882416,442.447266 483.640778,445.959290 479.073883,448.979431 
	C475.928833,451.059296 474.872192,453.461456 474.901581,457.221680 
	C475.085144,480.716736 474.965698,504.213959 475.046753,527.710144 
	C475.062317,532.219055 474.951050,536.498291 470.154205,538.758789 
	C465.298431,541.046997 461.020020,539.548950 457.176025,536.425903 
	C446.186340,527.497314 435.162750,518.606201 424.329468,509.490051 
	C384.174927,475.699982 344.083832,441.834442 303.988129,407.974518 
	C296.221313,401.415649 295.821075,395.884979 302.774231,388.012360 
	C343.802338,341.559235 384.871368,295.142242 425.962494,248.744827 
	C434.246368,239.391190 442.576385,230.072876 451.117157,220.955612 
	C453.674225,218.225922 456.711395,215.548553 460.065552,214.045547 
	C467.080994,210.901947 472.860626,214.949844 472.896729,222.583832 
	C472.987335,241.747223 472.981506,260.911072 473.013580,280.074738 
	C473.016571,281.872192 473.014008,283.669647 473.014008,286.074249 
	C479.155151,283.766876 484.707947,281.680573 490.641846,279.970367 
	C489.398407,283.261108 488.433289,287.399231 485.957184,288.733643 
	C483.649139,289.977478 479.734161,288.239441 476.526489,287.814362 
	C475.384888,294.662262 481.197144,305.918854 486.950714,307.289276 
	C485.555267,308.382690 484.374084,309.308167 483.044556,310.349915 
	C486.243988,315.228729 489.142303,319.739319 487.607788,325.841736 
	C485.094238,335.837830 483.176392,345.909027 491.056335,354.817688 
	C491.866913,355.734131 492.273254,358.029144 491.698303,358.970795 
	C489.391235,362.749237 491.088226,365.529297 493.236542,368.450989 
	C495.626556,371.701324 495.656555,382.524109 493.184296,385.632202 
	C487.480988,392.802246 481.457123,399.554535 477.689087,408.271606 
	C475.674591,412.932007 477.283997,413.908295 480.202545,415.971222 
	C481.493561,416.883759 483.015228,418.941772 482.800354,420.201355 
	C482.375427,422.691956 480.814880,424.988800 479.147949,428.620636 
	C482.305603,427.778137 484.627686,427.098450 486.980743,426.552124 
	C488.515961,426.195740 490.096130,426.033051 491.656189,425.783630 
	C491.772614,427.456360 492.640045,429.737274 491.868073,430.690552 
	C489.302338,433.858856 490.417419,436.418213 492.262756,439.145020 
z"/>
<path fill="#C41A16" opacity="1.000000" stroke="none" 
	d="
M885.395813,367.883423 
	C908.536987,392.407990 927.026855,420.127167 941.559021,450.474792 
	C957.721619,484.227142 968.354370,519.669983 972.555176,556.905212 
	C978.545105,609.999390 971.172058,661.473511 953.194092,711.593933 
	C951.363037,716.698792 949.514343,721.797363 947.675232,726.899353 
	C944.178101,736.600586 934.230225,739.045166 926.514221,732.037964 
	C914.943665,721.530396 903.469788,710.916077 891.859192,700.453125 
	C884.207581,693.557983 876.302856,686.943054 868.671631,680.026001 
	C862.890869,674.786316 861.367920,668.599731 866.079529,662.736145 
	C872.178223,655.146362 872.075378,646.406555 872.988708,637.807922 
	C877.371338,596.544373 866.485901,558.671875 847.192139,522.362976 
	C848.400024,520.473389 849.057373,518.130981 850.345459,517.707642 
	C856.865967,515.564453 853.488525,511.826691 851.777832,508.857513 
	C849.816162,505.452606 849.190979,502.673004 851.881958,499.313995 
	C852.716614,498.272278 852.462891,495.857910 851.882812,494.400116 
	C851.603394,493.697998 849.230286,493.207672 848.114319,493.570862 
	C844.010071,494.906464 842.244385,492.040070 840.462097,489.534088 
	C838.463684,486.724335 836.880615,483.619568 835.111816,480.646149 
	C833.584045,478.077911 831.829407,475.611572 830.624878,472.900360 
	C830.137756,471.804016 830.517395,469.995026 831.144165,468.866791 
	C831.466675,468.286224 833.505066,467.983490 834.236755,468.428589 
	C836.729065,469.944702 838.932434,471.926117 841.347534,473.581909 
	C843.440613,475.016907 845.671509,476.250854 847.841492,477.573639 
	C848.738098,477.329956 848.674316,478.119965 849.035400,478.566345 
	C850.460693,480.328522 851.899963,482.124451 853.617126,483.572113 
	C854.019470,483.911346 856.427063,482.772705 856.393860,482.590515 
	C856.002808,480.443420 855.823120,477.981781 854.606262,476.323029 
	C852.564697,473.540192 850.858765,470.629242 853.137634,467.788239 
	C854.442444,466.161499 857.360107,465.480499 859.672058,465.094360 
	C862.829651,464.566956 864.672119,464.200592 864.423584,459.950378 
	C864.241516,456.838623 865.592957,452.488281 867.854370,450.648010 
	C871.374268,447.783478 871.152405,445.142181 870.418213,441.541016 
	C869.568298,437.372375 868.275513,432.987671 868.809082,428.910614 
	C869.757874,421.660919 869.678040,420.950562 862.795654,418.811188 
	C861.499146,418.408203 859.608093,415.806244 859.932373,414.994354 
	C861.553589,410.936218 864.045471,407.234161 865.797729,403.217804 
	C867.486267,399.347565 868.762634,395.282288 870.002747,391.236115 
	C871.094177,387.675232 870.801514,383.001831 873.038513,380.626160 
	C877.457886,375.932770 878.306824,374.574799 874.586487,369.317993 
	C870.970520,364.208588 871.771606,362.014618 877.987549,360.003265 
	C879.227783,361.180847 880.467957,362.358459 881.853149,364.223328 
	C883.130676,365.901489 884.263245,366.892456 885.395813,367.883423 
z"/>
<path fill="#D51F1A" opacity="1.000000" stroke="none" 
	d="
M677.943298,401.119812 
	C677.501038,401.117554 677.058838,401.115295 676.296143,400.634033 
	C676.494263,396.841522 676.592163,393.389740 677.625610,390.245514 
	C679.371643,384.933167 679.090942,384.472687 673.741028,382.812958 
	C671.321228,382.062256 667.679749,380.084442 667.476318,378.329132 
	C666.881470,373.195618 667.737000,367.894043 668.016174,362.802948 
	C662.001953,361.296143 661.845520,361.365906 659.643921,356.429962 
	C658.243713,353.290680 657.343750,349.922028 656.305481,346.629120 
	C654.811462,341.890747 657.218506,338.044373 662.081543,336.934174 
	C663.181396,336.683075 664.110657,335.681366 665.116638,335.022430 
	C668.092773,333.073029 670.825500,330.254395 674.091125,329.341858 
	C682.426575,327.012634 683.897949,325.049622 685.536865,316.118347 
	C686.478210,310.988770 685.029358,303.790863 693.104614,302.058014 
	C693.528076,301.967133 694.027954,299.115570 693.455322,298.192566 
	C692.470154,296.604584 690.833069,294.827026 688.753479,297.446075 
	C686.598267,300.160278 684.300781,302.761566 681.545166,306.029266 
	C681.002136,304.264984 679.846619,302.585938 680.236206,301.425568 
	C682.168152,295.670868 683.202515,290.130524 682.588562,283.813446 
	C682.175781,279.566101 681.401550,278.208099 677.547974,277.973938 
	C673.571960,277.732300 669.444763,278.053192 666.869141,273.713501 
	C666.075256,272.376038 663.759521,271.990631 662.227844,271.030121 
	C660.254700,269.792816 658.148010,268.644226 656.496826,267.046234 
	C653.853333,264.487823 652.467102,260.620026 647.719238,260.591644 
	C644.556580,260.572784 641.399902,259.550293 637.900879,258.915344 
	C639.093262,257.404175 640.046936,256.195557 641.000549,254.986938 
	C660.895264,254.909210 680.404419,258.106781 699.786560,262.143036 
	C726.757812,267.759644 752.686523,276.544373 777.754395,289.000916 
	C775.510864,295.266815 781.487854,295.265076 782.904358,296.973083 
	C782.904358,300.783905 783.045959,303.652252 782.837952,306.494934 
	C782.749023,307.709625 782.117493,308.997284 781.413269,310.035126 
	C778.066040,314.968170 779.552368,322.235535 784.665649,325.455811 
	C789.343811,328.402069 789.585571,331.941620 785.420715,335.519897 
	C784.838013,336.020477 784.235107,336.824097 784.163330,337.539825 
	C783.700378,342.155029 783.196228,346.780365 783.086060,351.411438 
	C783.018616,354.249939 784.384644,356.211151 787.770142,355.557648 
	C791.231384,354.889557 794.701599,354.268188 799.359802,353.405670 
	C797.031006,349.854401 794.660950,346.240204 791.992676,342.171265 
	C798.717773,343.561707 806.453308,350.069611 808.521606,355.099487 
	C805.951965,358.578583 803.681702,361.862061 801.148560,364.928375 
	C800.546753,365.656860 799.044556,365.995514 797.990845,365.933075 
	C794.150269,365.705719 793.332214,367.852509 792.892883,371.132019 
	C792.565918,373.572357 791.224915,375.883911 790.285950,378.233002 
	C789.560974,380.046875 789.132141,382.151611 787.916138,383.561798 
	C785.103699,386.823486 782.312256,390.497467 778.683472,392.509369 
	C776.593445,393.668152 772.812744,392.189911 769.928650,391.402161 
	C766.130127,390.364655 763.719849,390.978882 763.620422,394.959991 
	C761.065002,395.324615 758.339417,394.922363 756.738953,396.078156 
	C749.605286,401.229492 750.834290,411.436829 758.787964,415.375458 
	C760.099426,416.024811 762.174072,416.497345 762.515503,417.514801 
	C764.407654,423.153534 768.458801,425.417145 773.992065,426.063782 
	C775.412292,426.229736 777.100830,426.846039 778.024597,427.847290 
	C779.301270,429.231171 780.582703,431.151123 780.652832,432.890289 
	C780.690552,433.825073 778.315613,435.448364 776.831604,435.733978 
	C773.435059,436.387756 771.863098,438.128143 771.882019,441.485626 
	C750.842224,427.354065 728.406494,416.057648 704.241394,408.309296 
	C699.351257,406.741333 694.375122,405.441467 689.176025,403.391296 
	C688.485901,396.837006 687.993713,396.553497 682.806885,399.055817 
	C681.222473,399.820129 679.566467,400.435974 677.943298,401.119812 
M787.201355,363.550568 
	C787.061584,362.462646 786.921753,361.374756 786.781982,360.286835 
	C785.963501,360.585266 785.145081,360.883667 784.326599,361.182098 
	C785.053955,362.047699 785.781311,362.913269 787.201355,363.550568 
z"/>
<path fill="#DF231D" opacity="1.000000" stroke="none" 
	d="
M640.598389,254.881454 
	C640.046936,256.195557 639.093262,257.404175 637.900879,258.915344 
	C641.399902,259.550293 644.556580,260.572784 647.719238,260.591644 
	C652.467102,260.620026 653.853333,264.487823 656.496826,267.046234 
	C658.148010,268.644226 660.254700,269.792816 662.227844,271.030121 
	C663.759521,271.990631 666.075256,272.376038 666.869141,273.713501 
	C669.444763,278.053192 673.571960,277.732300 677.547974,277.973938 
	C681.401550,278.208099 682.175781,279.566101 682.588562,283.813446 
	C683.202515,290.130524 682.168152,295.670868 680.236206,301.425568 
	C679.846619,302.585938 681.002136,304.264984 681.545166,306.029266 
	C684.300781,302.761566 686.598267,300.160278 688.753479,297.446075 
	C690.833069,294.827026 692.470154,296.604584 693.455322,298.192566 
	C694.027954,299.115570 693.528076,301.967133 693.104614,302.058014 
	C685.029358,303.790863 686.478210,310.988770 685.536865,316.118347 
	C683.897949,325.049622 682.426575,327.012634 674.091125,329.341858 
	C670.825500,330.254395 668.092773,333.073029 665.116638,335.022430 
	C664.110657,335.681366 663.181396,336.683075 662.081543,336.934174 
	C657.218506,338.044373 654.811462,341.890747 656.305481,346.629120 
	C657.343750,349.922028 658.243713,353.290680 659.643921,356.429962 
	C661.845520,361.365906 662.001953,361.296143 668.016174,362.802948 
	C667.737000,367.894043 666.881470,373.195618 667.476318,378.329132 
	C667.679749,380.084442 671.321228,382.062256 673.741028,382.812958 
	C679.090942,384.472687 679.371643,384.933167 677.625610,390.245514 
	C676.592163,393.389740 676.494263,396.841522 675.982971,400.518951 
	C656.593628,397.767761 637.095032,395.665436 617.445068,397.087494 
	C606.203064,397.901031 595.031311,399.685760 583.411621,400.601318 
	C581.508118,394.071808 580.985718,387.218964 572.615173,386.330566 
	C570.614624,386.118256 568.572510,386.114075 566.561768,386.229431 
	C564.213257,386.364197 561.878174,386.734772 559.346680,387.024872 
	C559.595642,382.508606 560.325989,378.833069 559.869446,375.311432 
	C559.173584,369.942932 557.597778,364.665039 564.642944,362.274994 
	C564.891968,362.190491 565.101440,361.770508 565.190796,361.466217 
	C567.414734,353.891510 569.954041,346.386230 571.677856,338.698303 
	C572.457275,335.222229 568.544189,333.051819 564.848145,334.445862 
	C562.279236,335.414673 561.004822,334.723358 561.010925,331.923035 
	C561.014709,330.166565 561.011597,328.410065 561.011597,326.444427 
	C566.118347,326.857544 569.817993,325.891846 572.060913,321.509705 
	C573.783142,318.144836 578.813782,316.228485 576.201416,310.978668 
	C575.831177,310.234619 577.167847,308.412628 578.018494,307.328064 
	C582.400513,301.740936 581.563599,296.034790 575.759705,292.270081 
	C575.114258,291.851379 574.417114,291.173828 574.208191,290.477112 
	C573.071960,286.687653 571.984375,282.877716 571.067139,279.030182 
	C570.091919,274.939301 562.307678,270.455902 558.342590,271.842712 
	C552.501465,273.885712 546.613708,270.500153 544.990295,264.164856 
	C545.415222,264.084351 545.840210,264.003845 546.780151,264.129883 
	C548.193542,263.939301 549.091919,263.542145 549.990356,263.145020 
	C550.412048,263.062958 550.833679,262.980896 551.827515,263.142242 
	C555.635376,263.529602 559.178101,264.608917 561.034607,260.551331 
	C572.837585,258.854706 584.592346,256.449249 596.455872,255.642548 
	C610.988403,254.654327 625.612000,255.004471 640.598389,254.881454 
z"/>
<path fill="#CE1C17" opacity="1.000000" stroke="none" 
	d="
M772.086060,441.731140 
	C771.863098,438.128143 773.435059,436.387756 776.831604,435.733978 
	C778.315613,435.448364 780.690552,433.825073 780.652832,432.890289 
	C780.582703,431.151123 779.301270,429.231171 778.024597,427.847290 
	C777.100830,426.846039 775.412292,426.229736 773.992065,426.063782 
	C768.458801,425.417145 764.407654,423.153534 762.515503,417.514801 
	C762.174072,416.497345 760.099426,416.024811 758.787964,415.375458 
	C750.834290,411.436829 749.605286,401.229492 756.738953,396.078156 
	C758.339417,394.922363 761.065002,395.324615 763.620422,394.959991 
	C763.719849,390.978882 766.130127,390.364655 769.928650,391.402161 
	C772.812744,392.189911 776.593445,393.668152 778.683472,392.509369 
	C782.312256,390.497467 785.103699,386.823486 787.916138,383.561798 
	C789.132141,382.151611 789.560974,380.046875 790.285950,378.233002 
	C791.224915,375.883911 792.565918,373.572357 792.892883,371.132019 
	C793.332214,367.852509 794.150269,365.705719 797.990845,365.933075 
	C799.044556,365.995514 800.546753,365.656860 801.148560,364.928375 
	C803.681702,361.862061 805.951965,358.578583 808.521606,355.099487 
	C806.453308,350.069611 798.717773,343.561707 791.992676,342.171265 
	C794.660950,346.240204 797.031006,349.854401 799.359802,353.405670 
	C794.701599,354.268188 791.231384,354.889557 787.770142,355.557648 
	C784.384644,356.211151 783.018616,354.249939 783.086060,351.411438 
	C783.196228,346.780365 783.700378,342.155029 784.163330,337.539825 
	C784.235107,336.824097 784.838013,336.020477 785.420715,335.519897 
	C789.585571,331.941620 789.343811,328.402069 784.665649,325.455811 
	C779.552368,322.235535 778.066040,314.968170 781.413269,310.035126 
	C782.117493,308.997284 782.749023,307.709625 782.837952,306.494934 
	C783.045959,303.652252 782.904358,300.783905 782.904358,296.973083 
	C781.487854,295.265076 775.510864,295.266815 777.994019,289.244934 
	C779.511902,289.515717 780.980103,290.141968 782.780396,291.311890 
	C787.134155,294.499725 791.132996,297.181030 795.224243,299.712952 
	C795.529907,299.902100 796.497314,299.021942 797.157104,298.638885 
	C797.157104,298.638885 797.617493,298.786072 797.860779,299.296265 
	C798.573181,301.193115 798.968689,302.609985 799.523865,303.961212 
	C802.086426,310.197510 804.632324,310.669220 809.293640,305.815643 
	C823.425110,315.690674 837.910095,325.105804 851.565430,335.600342 
	C860.875244,342.755157 869.025513,351.418640 877.840881,359.705444 
	C871.771606,362.014618 870.970520,364.208588 874.586487,369.317993 
	C878.306824,374.574799 877.457886,375.932770 873.038513,380.626160 
	C870.801514,383.001831 871.094177,387.675232 870.002747,391.236115 
	C868.762634,395.282288 867.486267,399.347565 865.797729,403.217804 
	C864.045471,407.234161 861.553589,410.936218 859.932373,414.994354 
	C859.608093,415.806244 861.499146,418.408203 862.795654,418.811188 
	C869.678040,420.950562 869.757874,421.660919 868.809082,428.910614 
	C868.275513,432.987671 869.568298,437.372375 870.418213,441.541016 
	C871.152405,445.142181 871.374268,447.783478 867.854370,450.648010 
	C865.592957,452.488281 864.241516,456.838623 864.423584,459.950378 
	C864.672119,464.200592 862.829651,464.566956 859.672058,465.094360 
	C857.360107,465.480499 854.442444,466.161499 853.137634,467.788239 
	C850.858765,470.629242 852.564697,473.540192 854.606262,476.323029 
	C855.823120,477.981781 856.002808,480.443420 856.393860,482.590515 
	C856.427063,482.772705 854.019470,483.911346 853.617126,483.572113 
	C851.899963,482.124451 850.460693,480.328522 849.035400,478.566345 
	C848.674316,478.119965 848.738098,477.329956 847.841492,477.573639 
	C845.671509,476.250854 843.440613,475.016907 841.347534,473.581909 
	C838.932434,471.926117 836.729065,469.944702 834.236755,468.428589 
	C833.505066,467.983490 831.466675,468.286224 831.144165,468.866791 
	C830.517395,469.995026 830.137756,471.804016 830.624878,472.900360 
	C831.829407,475.611572 833.584045,478.077911 835.111816,480.646149 
	C836.880615,483.619568 838.463684,486.724335 840.462097,489.534088 
	C842.244385,492.040070 844.010071,494.906464 848.114319,493.570862 
	C849.230286,493.207672 851.603394,493.697998 851.882812,494.400116 
	C852.462891,495.857910 852.716614,498.272278 851.881958,499.313995 
	C849.190979,502.673004 849.816162,505.452606 851.777832,508.857513 
	C853.488525,511.826691 856.865967,515.564453 850.345459,517.707642 
	C849.057373,518.130981 848.400024,520.473389 847.075745,522.020752 
	C836.310425,505.126617 825.054993,488.668091 810.660156,474.891144 
	C798.504333,463.257080 785.126892,452.899323 772.086060,441.731140 
z"/>
<path fill="#E8251F" opacity="1.000000" stroke="none" 
	d="
M544.576538,264.075623 
	C546.613708,270.500153 552.501465,273.885712 558.342590,271.842712 
	C562.307678,270.455902 570.091919,274.939301 571.067139,279.030182 
	C571.984375,282.877716 573.071960,286.687653 574.208191,290.477112 
	C574.417114,291.173828 575.114258,291.851379 575.759705,292.270081 
	C581.563599,296.034790 582.400513,301.740936 578.018494,307.328064 
	C577.167847,308.412628 575.831177,310.234619 576.201416,310.978668 
	C578.813782,316.228485 573.783142,318.144836 572.060913,321.509705 
	C569.817993,325.891846 566.118347,326.857544 561.011597,326.444427 
	C561.011597,328.410065 561.014709,330.166565 561.010925,331.923035 
	C561.004822,334.723358 562.279236,335.414673 564.848145,334.445862 
	C568.544189,333.051819 572.457275,335.222229 571.677856,338.698303 
	C569.954041,346.386230 567.414734,353.891510 565.190796,361.466217 
	C565.101440,361.770508 564.891968,362.190491 564.642944,362.274994 
	C557.597778,364.665039 559.173584,369.942932 559.869446,375.311432 
	C560.325989,378.833069 559.595642,382.508606 559.346680,387.024872 
	C561.878174,386.734772 564.213257,386.364197 566.561768,386.229431 
	C568.572510,386.114075 570.614624,386.118256 572.615173,386.330566 
	C580.985718,387.218964 581.508118,394.071808 582.995483,400.568512 
	C573.786255,403.396484 564.398743,405.306213 555.414185,408.390045 
	C544.988281,411.968597 534.916077,416.577698 524.342041,420.417908 
	C523.825867,418.885498 523.658020,417.674713 523.490112,416.463928 
	C522.977478,416.135406 522.464844,415.806885 521.952209,415.478363 
	C520.910583,417.513397 519.868896,419.548431 518.960449,421.323181 
	C509.895782,415.388580 502.353363,418.144226 498.569305,428.124512 
	C500.722656,429.083893 502.909943,430.058380 505.097229,431.032837 
	C501.037231,433.676270 496.977264,436.319702 492.590027,439.054077 
	C490.417419,436.418213 489.302338,433.858856 491.868073,430.690552 
	C492.640045,429.737274 491.772614,427.456360 491.656189,425.783630 
	C490.096130,426.033051 488.515961,426.195740 486.980743,426.552124 
	C484.627686,427.098450 482.305603,427.778137 479.147949,428.620636 
	C480.814880,424.988800 482.375427,422.691956 482.800354,420.201355 
	C483.015228,418.941772 481.493561,416.883759 480.202545,415.971222 
	C477.283997,413.908295 475.674591,412.932007 477.689087,408.271606 
	C481.457123,399.554535 487.480988,392.802246 493.184296,385.632202 
	C495.656555,382.524109 495.626556,371.701324 493.236542,368.450989 
	C491.088226,365.529297 489.391235,362.749237 491.698303,358.970795 
	C492.273254,358.029144 491.866913,355.734131 491.056335,354.817688 
	C483.176392,345.909027 485.094238,335.837830 487.607788,325.841736 
	C489.142303,319.739319 486.243988,315.228729 483.044556,310.349915 
	C484.374084,309.308167 485.555267,308.382690 486.950714,307.289276 
	C481.197144,305.918854 475.384888,294.662262 476.526489,287.814362 
	C479.734161,288.239441 483.649139,289.977478 485.957184,288.733643 
	C488.433289,287.399231 489.398407,283.261108 491.040344,279.911743 
	C507.529816,274.641510 524.001343,269.804108 540.475098,264.974487 
	C541.695923,264.616577 542.933167,264.314453 544.576538,264.075623 
z"/>
<path fill="#F1F1F1" opacity="1.000000" stroke="none" 
	d="
M349.018372,842.501221 
	C349.725891,841.133423 350.342010,839.872070 351.342072,839.124451 
	C352.032898,838.608032 353.671661,839.177002 354.173859,838.619080 
	C359.073822,833.175842 361.840668,837.971375 364.357483,840.991943 
	C384.798492,865.525146 408.960480,885.858887 435.377991,903.517151 
	C456.691498,917.763733 479.521820,929.279785 503.413116,938.612793 
	C511.385773,941.727234 519.492065,944.499695 527.671631,948.077271 
	C527.307312,949.112183 526.791626,949.852966 526.312439,949.830078 
	C521.000549,949.575867 516.777710,950.735413 515.321350,956.777649 
	C515.117737,957.622375 512.815613,958.728943 511.797729,958.472473 
	C508.058624,957.530457 506.100983,953.257690 507.876709,949.821777 
	C509.601196,946.484924 508.444733,944.365234 505.295837,941.527893 
	C504.729919,943.541992 504.259918,944.813232 504.033966,946.126404 
	C503.782471,947.587891 503.950165,949.138977 503.579681,950.558289 
	C503.063873,952.534424 501.088837,955.241211 501.761749,956.171082 
	C502.948364,957.811096 505.619354,958.455811 507.751251,959.312256 
	C510.213989,960.301697 512.834717,960.914917 515.252319,961.993103 
	C516.638550,962.611328 517.757629,963.828369 518.997009,964.775879 
	C497.916504,958.382751 477.889130,949.517273 458.666870,938.827087 
	C422.858704,918.913025 391.313660,893.714355 364.762848,862.424805 
	C359.353210,856.049622 354.305359,849.367493 349.018372,842.501221 
z"/>
<path fill="#E6E6E6" opacity="1.000000" stroke="none" 
	d="
M641.994202,962.990234 
	C644.601074,962.666199 647.200867,962.140625 649.815918,962.049133 
	C679.273682,961.018311 708.164307,956.422729 736.200623,947.346680 
	C751.470886,942.403259 766.380127,936.345215 781.456177,930.800537 
	C782.208801,930.523743 782.998352,930.347412 785.087830,929.743774 
	C785.087830,936.112183 785.087830,941.954468 785.096436,948.245239 
	C773.489441,953.148376 762.124634,958.487976 750.203735,961.864258 
	C728.656372,967.966858 706.776917,972.897095 684.337769,978.011963 
	C678.767944,977.968445 673.891235,978.155762 669.026611,978.509460 
	C662.566772,978.979126 656.116394,979.578674 650.421082,980.058533 
	C650.052612,976.685730 650.480042,974.008728 649.411133,972.231812 
	C647.393616,968.877747 644.515015,966.041565 641.994202,962.990234 
z"/>
<path fill="#ECECEC" opacity="1.000000" stroke="none" 
	d="
M641.526489,962.987061 
	C644.515015,966.041565 647.393616,968.877747 649.411133,972.231812 
	C650.480042,974.008728 650.052612,976.685730 650.421082,980.058533 
	C656.116394,979.578674 662.566772,978.979126 669.026611,978.509460 
	C673.891235,978.155762 678.767944,977.968445 683.904297,978.031982 
	C669.729370,979.753967 655.289368,981.151184 640.430054,982.059875 
	C640.096313,978.686462 639.423157,975.880798 642.798035,973.748169 
	C645.235046,972.208008 644.125793,969.830139 641.371582,969.153076 
	C638.017700,968.328552 634.593811,967.720825 631.165527,967.304932 
	C630.027283,967.166748 628.501892,967.612427 627.693481,968.368530 
	C627.228516,968.803467 627.527466,970.585022 628.033386,971.431030 
	C629.727966,974.265198 628.956177,976.062012 626.158264,977.456909 
	C625.097656,977.985657 624.220886,978.883362 623.260376,979.612915 
	C623.357239,980.073608 623.454041,980.534363 623.550903,980.995056 
	C626.605408,980.995056 629.674805,980.813904 632.708740,981.063782 
	C634.495178,981.210938 636.225281,982.042053 637.980713,982.565552 
	C603.773010,983.941650 570.247742,979.525391 537.270935,970.594666 
	C531.330078,968.985840 525.485535,967.021057 519.296753,964.998291 
	C517.757629,963.828369 516.638550,962.611328 515.252319,961.993103 
	C512.834717,960.914917 510.213989,960.301697 507.751251,959.312256 
	C505.619354,958.455811 502.948364,957.811096 501.761749,956.171082 
	C501.088837,955.241211 503.063873,952.534424 503.579681,950.558289 
	C503.950165,949.138977 503.782471,947.587891 504.033966,946.126404 
	C504.259918,944.813232 504.729919,943.541992 505.295837,941.527893 
	C508.444733,944.365234 509.601196,946.484924 507.876709,949.821777 
	C506.100983,953.257690 508.058624,957.530457 511.797729,958.472473 
	C512.815613,958.728943 515.117737,957.622375 515.321350,956.777649 
	C516.777710,950.735413 521.000549,949.575867 526.312439,949.830078 
	C526.791626,949.852966 527.307312,949.112183 527.906799,948.349609 
	C536.874084,950.016052 545.722046,952.144714 554.613281,954.073730 
	C561.235779,955.510498 567.881470,956.902527 574.575867,957.929565 
	C583.486023,959.296509 592.453491,960.289551 601.710938,962.073853 
	C602.551697,963.384338 603.077942,964.064331 603.604187,964.744263 
	C604.069458,963.829529 604.534729,962.914734 605.000000,962.000000 
	C617.019592,962.327942 629.039124,962.655884 641.526489,962.987061 
M589.504700,977.227783 
	C589.273560,976.261108 589.042358,975.294434 588.811157,974.327759 
	C586.951599,974.946716 585.092041,975.565613 583.232483,976.184570 
	C583.385254,976.692383 583.538086,977.200195 583.690857,977.708008 
	C585.428345,977.708008 587.165833,977.708008 589.504700,977.227783 
M611.158997,977.790161 
	C609.969910,978.072083 608.780884,978.354004 607.591858,978.635864 
	C607.677856,979.076477 607.763916,979.517090 607.849915,979.957703 
	C609.450256,979.957703 611.075317,980.121582 612.639954,979.885376 
	C613.373657,979.774597 613.990967,978.892578 614.661011,978.360107 
	C613.736511,978.087708 612.812073,977.815308 611.158997,977.790161 
M619.504517,971.267639 
	C619.262085,971.012207 619.021912,970.754333 618.764709,970.514771 
	C618.758057,970.508484 618.565430,970.701904 618.459534,970.802185 
	C618.702271,971.057739 618.945007,971.313293 619.504517,971.267639 
z"/>
<path fill="#ECECEC" opacity="1.000000" stroke="none" 
	d="
M287.214661,584.553955 
	C288.028412,584.988586 289.305359,585.761597 289.266510,586.461609 
	C288.993256,591.385986 288.152222,596.289307 288.053162,601.210632 
	C287.846863,611.457092 287.594940,621.729248 288.081360,631.956543 
	C288.742035,645.847107 289.149841,659.854919 291.353516,673.540649 
	C294.192352,691.171082 298.641571,708.545898 302.527008,726.001892 
	C303.710663,731.319702 305.401276,736.523132 306.690430,741.820129 
	C307.075409,743.401733 307.352417,745.278259 306.863770,746.748901 
	C305.793457,749.970276 306.660004,752.482483 308.573517,755.002991 
	C310.974976,758.166321 309.996185,760.190430 305.830505,761.086792 
	C295.850677,736.845581 289.618713,711.709839 286.159882,685.884521 
	C281.645111,652.175232 281.562164,618.487000 287.214661,584.553955 
M287.228607,591.896729 
	C287.436371,591.851562 287.644165,591.806458 287.851929,591.761292 
	C287.778687,591.485474 287.705475,591.209717 287.632233,590.933899 
	C287.474304,591.123047 287.316345,591.312195 287.228607,591.896729 
z"/>
<path fill="#E6E6E6" opacity="1.000000" stroke="none" 
	d="
M638.328064,982.657959 
	C636.225281,982.042053 634.495178,981.210938 632.708740,981.063782 
	C629.674805,980.813904 626.605408,980.995056 623.550903,980.995056 
	C623.454041,980.534363 623.357239,980.073608 623.260376,979.612915 
	C624.220886,978.883362 625.097656,977.985657 626.158264,977.456909 
	C628.956177,976.062012 629.727966,974.265198 628.033386,971.431030 
	C627.527466,970.585022 627.228516,968.803467 627.693481,968.368530 
	C628.501892,967.612427 630.027283,967.166748 631.165527,967.304932 
	C634.593811,967.720825 638.017700,968.328552 641.371582,969.153076 
	C644.125793,969.830139 645.235046,972.208008 642.798035,973.748169 
	C639.423157,975.880798 640.096313,978.686462 640.019531,981.966675 
	C639.577393,982.491394 639.126404,982.620850 638.328064,982.657959 
z"/>
<path fill="#ED251F" opacity="1.000000" stroke="none" 
	d="
M505.377075,430.977539 
	C502.909943,430.058380 500.722656,429.083893 498.569305,428.124512 
	C502.353363,418.144226 509.895782,415.388580 518.960449,421.323181 
	C519.868896,419.548431 520.910583,417.513397 521.952209,415.478363 
	C522.464844,415.806885 522.977478,416.135406 523.490112,416.463928 
	C523.658020,417.674713 523.825867,418.885498 523.993042,420.471069 
	C518.979309,423.549591 513.966248,426.253357 508.362122,429.083679 
	C507.520752,429.442902 507.270386,429.675568 507.020050,429.908234 
	C506.565674,430.246246 506.111267,430.584198 505.377075,430.977539 
z"/>
<path fill="#ECECEC" opacity="1.000000" stroke="none" 
	d="
M307.441528,766.607422 
	C313.360016,764.528076 314.760773,769.048889 316.380341,772.981934 
	C317.525391,775.762512 317.707916,778.541138 313.705597,780.029175 
	C311.368225,775.764465 309.421875,771.373352 307.441528,766.607422 
z"/>
<path fill="#C41A16" opacity="1.000000" stroke="none" 
	d="
M809.075562,305.553223 
	C804.632324,310.669220 802.086426,310.197510 799.523865,303.961212 
	C798.968689,302.609985 798.573181,301.193115 798.050049,299.446594 
	C801.616516,301.154724 805.237000,303.222778 809.075562,305.553223 
z"/>
<path fill="#DF231D" opacity="1.000000" stroke="none" 
	d="
M678.263794,401.326538 
	C679.566467,400.435974 681.222473,399.820129 682.806885,399.055817 
	C687.993713,396.553497 688.485901,396.837006 688.874756,403.208435 
	C685.418884,402.945953 682.001587,402.239624 678.263794,401.326538 
z"/>
<path fill="#C41A16" opacity="1.000000" stroke="none" 
	d="
M796.938721,298.394806 
	C796.497314,299.021942 795.529907,299.902100 795.224243,299.712952 
	C791.132996,297.181030 787.134155,294.499725 783.052856,291.523193 
	C787.569031,293.510803 792.144653,295.830780 796.938721,298.394806 
z"/>
<path fill="#E8251F" opacity="1.000000" stroke="none" 
	d="
M560.614746,260.536804 
	C559.178101,264.608917 555.635376,263.529602 552.146912,263.095459 
	C554.661011,262.044281 557.427917,261.283295 560.614746,260.536804 
z"/>
<path fill="#CE1C17" opacity="1.000000" stroke="none" 
	d="
M885.254700,367.588501 
	C884.263245,366.892456 883.130676,365.901489 881.981934,364.519714 
	C883.015076,365.183746 884.064331,366.238678 885.254700,367.588501 
z"/>
<path fill="#ECECEC" opacity="1.000000" stroke="none" 
	d="
M288.013672,580.266113 
	C288.162750,580.984009 288.146790,581.919250 287.832520,582.993164 
	C287.639038,582.249023 287.743866,581.366211 288.013672,580.266113 
z"/>
<path fill="#E8251F" opacity="1.000000" stroke="none" 
	d="
M549.647705,263.093628 
	C549.091919,263.542145 548.193542,263.939301 547.101074,264.079285 
	C547.706421,263.562164 548.505676,263.302216 549.647705,263.093628 
z"/>
<path fill="#ECECEC" opacity="1.000000" stroke="none" 
	d="
M289.050415,574.326294 
	C289.184937,574.994873 289.156921,575.933472 288.865387,576.960693 
	C288.697205,576.231689 288.792511,575.413940 289.050415,574.326294 
z"/>
<path fill="#ECECEC" opacity="1.000000" stroke="none" 
	d="
M291.958801,560.250122 
	C292.096008,560.668823 292.062622,561.302002 291.788269,561.990723 
	C291.627594,561.519043 291.707916,560.991760 291.958801,560.250122 
z"/>
<path fill="#ECECEC" opacity="1.000000" stroke="none" 
	d="
M293.042603,555.272217 
	C293.186829,555.671692 293.177185,556.291382 292.943359,556.982178 
	C292.775696,556.533081 292.832245,556.012756 293.042603,555.272217 
z"/>
<path fill="#ECECEC" opacity="1.000000" stroke="none" 
	d="
M297.046631,540.217529 
	C297.170715,540.676208 297.134857,541.298462 296.832245,542.020203 
	C296.672577,541.540161 296.779633,540.960693 297.046631,540.217529 
z"/>
<path fill="#ECECEC" opacity="1.000000" stroke="none" 
	d="
M290.036743,569.272095 
	C290.187592,569.669128 290.185577,570.288086 289.960632,570.980225 
	C289.786438,570.533569 289.835144,570.013733 290.036743,569.272095 
z"/>
<path fill="#ECECEC" opacity="1.000000" stroke="none" 
	d="
M291.012146,564.264771 
	C291.185913,564.659851 291.206146,565.275024 291.009125,565.971619 
	C290.814148,565.530334 290.836365,565.007568 291.012146,564.264771 
z"/>
<path fill="#E8251F" opacity="1.000000" stroke="none" 
	d="
M507.281677,429.864563 
	C507.270386,429.675568 507.520752,429.442902 508.024445,429.146362 
	C508.032959,429.328674 507.788147,429.574799 507.281677,429.864563 
z"/>
<path fill="#E6E6E6" opacity="1.000000" stroke="none" 
	d="
M604.625549,961.996704 
	C604.534729,962.914734 604.069458,963.829529 603.604187,964.744263 
	C603.077942,964.064331 602.551697,963.384338 602.015137,962.340942 
	C602.753601,961.982788 603.502319,961.988098 604.625549,961.996704 
z"/>
<path fill="#CE1C17" opacity="1.000000" stroke="none" 
	d="
M786.854980,363.664703 
	C785.781311,362.913269 785.053955,362.047699 784.326599,361.182098 
	C785.145081,360.883667 785.963501,360.585266 786.781982,360.286835 
	C786.921753,361.374756 787.061584,362.462646 786.854980,363.664703 
z"/>
<path fill="#E6E6E6" opacity="1.000000" stroke="none" 
	d="
M589.203979,977.467896 
	C587.165833,977.708008 585.428345,977.708008 583.690857,977.708008 
	C583.538086,977.200195 583.385254,976.692383 583.232483,976.184570 
	C585.092041,975.565613 586.951599,974.946716 588.811157,974.327759 
	C589.042358,975.294434 589.273560,976.261108 589.203979,977.467896 
z"/>
<path fill="#E6E6E6" opacity="1.000000" stroke="none" 
	d="
M611.523315,977.666504 
	C612.812073,977.815308 613.736511,978.087708 614.661011,978.360107 
	C613.990967,978.892578 613.373657,979.774597 612.639954,979.885376 
	C611.075317,980.121582 609.450256,979.957703 607.849915,979.957703 
	C607.763916,979.517090 607.677856,979.076477 607.591858,978.635864 
	C608.780884,978.354004 609.969910,978.072083 611.523315,977.666504 
z"/>
<path fill="#E6E6E6" opacity="1.000000" stroke="none" 
	d="
M619.346130,971.418213 
	C618.945007,971.313293 618.702271,971.057739 618.459534,970.802185 
	C618.565430,970.701904 618.758057,970.508484 618.764709,970.514771 
	C619.021912,970.754333 619.262085,971.012207 619.346130,971.418213 
z"/>
<path fill="#FDFDFD" opacity="1.000000" stroke="none" 
	d="
M287.193481,591.698975 
	C287.316345,591.312195 287.474304,591.123047 287.632233,590.933899 
	C287.705475,591.209717 287.778687,591.485474 287.851929,591.761292 
	C287.644165,591.806458 287.436371,591.851562 287.193481,591.698975 
z"/>
</svg>